<svg width="32" height="32" viewBox="0 0 32 32" fill="none" xmlns="http://www.w3.org/2000/svg">
<rect width="32" height="32" rx="4" fill="black"/>
<path d="M8.12 15.48H8.68C8.88267 15.48 9.04533 15.456 9.168 15.408C9.296 15.3547 9.41067 15.2667 9.512 15.144L13.168 10.896C13.2853 10.752 13.4053 10.6533 13.528 10.6C13.6507 10.5413 13.8027 10.512 13.984 10.512H15.44L11.184 15.408C11.0773 15.5467 10.9707 15.6587 10.864 15.744C10.7627 15.8293 10.656 15.9013 10.544 15.96C10.8373 16.0613 11.0933 16.2667 11.312 16.576L15.736 22H14.256C14.1493 22 14.056 21.992 13.976 21.976C13.9013 21.96 13.8347 21.9387 13.776 21.912C13.7227 21.88 13.672 21.8427 13.624 21.8C13.5813 21.7573 13.5413 21.7067 13.504 21.648L9.72 17.168C9.66667 17.0987 9.61333 17.04 9.56 16.992C9.50667 16.944 9.44533 16.9067 9.376 16.88C9.30667 16.848 9.22667 16.8267 9.136 16.816C9.04533 16.8 8.93867 16.792 8.816 16.792H8.12V22H6.416V10.512H8.12V15.48ZM25.8389 16.408V20.888C25.2575 21.304 24.6389 21.616 23.9829 21.824C23.3269 22.0267 22.6122 22.128 21.8389 22.128C20.9109 22.128 20.0709 21.984 19.3189 21.696C18.5722 21.408 17.9349 21.0053 17.4069 20.488C16.8789 19.9707 16.4709 19.352 16.1829 18.632C15.9002 17.912 15.7589 17.12 15.7589 16.256C15.7589 15.3867 15.8949 14.592 16.1669 13.872C16.4442 13.1467 16.8389 12.528 17.3509 12.016C17.8629 11.4987 18.4815 11.0987 19.2069 10.816C19.9375 10.528 20.7562 10.384 21.6629 10.384C22.1215 10.384 22.5455 10.4187 22.9349 10.488C23.3295 10.5573 23.6949 10.656 24.0309 10.784C24.3669 10.912 24.6762 11.0667 24.9589 11.248C25.2469 11.424 25.5135 11.624 25.7589 11.848L25.2709 12.616C25.1962 12.7387 25.0975 12.816 24.9749 12.848C24.8522 12.88 24.7189 12.8507 24.5749 12.76C24.4362 12.68 24.2815 12.5867 24.1109 12.48C23.9455 12.3733 23.7455 12.2747 23.5109 12.184C23.2815 12.0933 23.0122 12.016 22.7029 11.952C22.3935 11.888 22.0282 11.856 21.6069 11.856C20.9775 11.856 20.4095 11.96 19.9029 12.168C19.3962 12.3707 18.9642 12.664 18.6069 13.048C18.2495 13.432 17.9749 13.896 17.7829 14.44C17.5909 14.9787 17.4949 15.584 17.4949 16.256C17.4949 16.96 17.5962 17.592 17.7989 18.152C18.0015 18.7067 18.2869 19.1787 18.6549 19.568C19.0282 19.952 19.4789 20.2453 20.0069 20.448C20.5402 20.6507 21.1349 20.752 21.7909 20.752C22.0469 20.752 22.2842 20.7387 22.5029 20.712C22.7269 20.68 22.9402 20.6373 23.1429 20.584C23.3455 20.5307 23.5402 20.464 23.7269 20.384C23.9189 20.304 24.1082 20.216 24.2949 20.12V17.712H22.5989C22.4922 17.712 22.4042 17.68 22.3349 17.616C22.2709 17.552 22.2389 17.472 22.2389 17.376V16.408H25.8389Z" fill="white"/>
</svg>
